<mxfile host="www.draw.io" modified="2020-01-21T08:10:05.479Z" agent="Mozilla/5.0 (Windows NT 10.0; Win64; x64) AppleWebKit/537.36 (KHTML, like Gecko) Chrome/79.0.3945.130 Safari/537.36" etag="UFfLnlTlj7mskTEmqPmz" version="12.5.5" type="github">
  <diagram id="VoFLqr6qbXAysXTLZS24" name="Page-1">
    <mxGraphModel dx="600" dy="285" grid="1" gridSize="10" guides="1" tooltips="1" connect="1" arrows="1" fold="1" page="1" pageScale="1" pageWidth="827" pageHeight="1169" math="0" shadow="0">
      <root>
        <mxCell id="0"/>
        <mxCell id="1" parent="0"/>
        <mxCell id="KA4Vn77G2BXHQ5LwoBZZ-1" value="RTM-PART&lt;br&gt;vs. OM" style="rounded=0;whiteSpace=wrap;html=1;" parent="1" vertex="1">
          <mxGeometry x="30" y="310" width="120" height="60" as="geometry"/>
        </mxCell>
        <mxCell id="KA4Vn77G2BXHQ5LwoBZZ-2" value="Perceived Benefits" style="rounded=0;whiteSpace=wrap;html=1;" parent="1" vertex="1">
          <mxGeometry x="200" y="190" width="120" height="60" as="geometry"/>
        </mxCell>
        <mxCell id="KA4Vn77G2BXHQ5LwoBZZ-4" value="Future Smoking Intentions" style="rounded=0;whiteSpace=wrap;html=1;" parent="1" vertex="1">
          <mxGeometry x="580" y="310" width="120" height="60" as="geometry"/>
        </mxCell>
        <mxCell id="KA4Vn77G2BXHQ5LwoBZZ-6" value="Attitudes toward Smoking" style="rounded=0;whiteSpace=wrap;html=1;" parent="1" vertex="1">
          <mxGeometry x="390" y="190" width="120" height="60" as="geometry"/>
        </mxCell>
        <mxCell id="KA4Vn77G2BXHQ5LwoBZZ-10" value="" style="endArrow=classic;html=1;entryX=0;entryY=1;entryDx=0;entryDy=0;entryPerimeter=0;" parent="1" target="KA4Vn77G2BXHQ5LwoBZZ-2" edge="1">
          <mxGeometry width="50" height="50" relative="1" as="geometry">
            <mxPoint x="150" y="310" as="sourcePoint"/>
            <mxPoint x="200" y="260" as="targetPoint"/>
          </mxGeometry>
        </mxCell>
        <mxCell id="KA4Vn77G2BXHQ5LwoBZZ-12" value="" style="endArrow=classic;html=1;entryX=0.02;entryY=-0.037;entryDx=0;entryDy=0;entryPerimeter=0;exitX=1.015;exitY=0.971;exitDx=0;exitDy=0;exitPerimeter=0;" parent="1" source="KA4Vn77G2BXHQ5LwoBZZ-6" target="KA4Vn77G2BXHQ5LwoBZZ-4" edge="1">
          <mxGeometry width="50" height="50" relative="1" as="geometry">
            <mxPoint x="480" y="250" as="sourcePoint"/>
            <mxPoint x="540" y="250" as="targetPoint"/>
          </mxGeometry>
        </mxCell>
        <mxCell id="KA4Vn77G2BXHQ5LwoBZZ-19" value="" style="endArrow=classic;html=1;entryX=0;entryY=0.5;entryDx=0;entryDy=0;" parent="1" target="KA4Vn77G2BXHQ5LwoBZZ-6" edge="1">
          <mxGeometry width="50" height="50" relative="1" as="geometry">
            <mxPoint x="320" y="220" as="sourcePoint"/>
            <mxPoint x="370" y="170" as="targetPoint"/>
          </mxGeometry>
        </mxCell>
        <mxCell id="KA4Vn77G2BXHQ5LwoBZZ-24" value="" style="endArrow=classic;html=1;strokeColor=none;" parent="1" edge="1">
          <mxGeometry width="50" height="50" relative="1" as="geometry">
            <mxPoint x="150" y="338.5" as="sourcePoint"/>
            <mxPoint x="580" y="339" as="targetPoint"/>
          </mxGeometry>
        </mxCell>
        <mxCell id="KA4Vn77G2BXHQ5LwoBZZ-26" value="c&#39; = -0.64*" style="text;html=1;resizable=0;points=[];autosize=1;align=left;verticalAlign=top;spacingTop=-4;" parent="1" vertex="1">
          <mxGeometry x="324" y="320" width="70" height="20" as="geometry"/>
        </mxCell>
        <mxCell id="KA4Vn77G2BXHQ5LwoBZZ-27" value="a&lt;sub&gt;1&lt;/sub&gt; = -.056*" style="text;html=1;resizable=0;points=[];autosize=1;align=left;verticalAlign=top;spacingTop=-4;" parent="1" vertex="1">
          <mxGeometry x="108" y="260" width="70" height="20" as="geometry"/>
        </mxCell>
        <mxCell id="KA4Vn77G2BXHQ5LwoBZZ-28" value="a&lt;sub&gt;3&lt;/sub&gt; = 0.59***" style="text;html=1;resizable=0;points=[];autosize=1;align=left;verticalAlign=top;spacingTop=-4;" parent="1" vertex="1">
          <mxGeometry x="320" y="200" width="80" height="20" as="geometry"/>
        </mxCell>
        <mxCell id="KA4Vn77G2BXHQ5LwoBZZ-29" value="" style="endArrow=classic;dashed=1;html=1;entryX=-0.015;entryY=1.036;entryDx=0;entryDy=0;entryPerimeter=0;endFill=1;" parent="1" target="KA4Vn77G2BXHQ5LwoBZZ-6" edge="1">
          <mxGeometry width="50" height="50" relative="1" as="geometry">
            <mxPoint x="150" y="340" as="sourcePoint"/>
            <mxPoint x="200" y="290" as="targetPoint"/>
          </mxGeometry>
        </mxCell>
        <mxCell id="KA4Vn77G2BXHQ5LwoBZZ-31" value="a&lt;sub&gt;2&lt;/sub&gt; = 0.40*" style="text;html=1;resizable=0;points=[];autosize=1;align=left;verticalAlign=top;spacingTop=-4;" parent="1" vertex="1">
          <mxGeometry x="210" y="830" width="70" height="20" as="geometry"/>
        </mxCell>
        <mxCell id="KA4Vn77G2BXHQ5LwoBZZ-32" value="b&lt;sub&gt;2&lt;/sub&gt; = 0.34*" style="text;html=1;resizable=0;points=[];autosize=1;align=left;verticalAlign=top;spacingTop=-4;" parent="1" vertex="1">
          <mxGeometry x="550" y="260" width="70" height="20" as="geometry"/>
        </mxCell>
        <mxCell id="KA4Vn77G2BXHQ5LwoBZZ-33" value="" style="endArrow=classic;html=1;" parent="1" edge="1">
          <mxGeometry width="50" height="50" relative="1" as="geometry">
            <mxPoint x="320" y="251" as="sourcePoint"/>
            <mxPoint x="580" y="340" as="targetPoint"/>
          </mxGeometry>
        </mxCell>
        <mxCell id="KA4Vn77G2BXHQ5LwoBZZ-34" value="b&lt;sub&gt;1&lt;/sub&gt; = 0.33**" style="text;html=1;resizable=0;points=[];autosize=1;align=left;verticalAlign=top;spacingTop=-4;" parent="1" vertex="1">
          <mxGeometry x="460" y="280" width="70" height="20" as="geometry"/>
        </mxCell>
        <mxCell id="KA4Vn77G2BXHQ5LwoBZZ-35" value="Indirect effect (RTM-PART -&amp;gt; Benefits -&amp;gt; Attitudes -&amp;gt; Intentions) = -.011 $" style="text;html=1;resizable=0;points=[];autosize=1;align=left;verticalAlign=top;spacingTop=-4;" parent="1" vertex="1">
          <mxGeometry x="183" y="160" width="400" height="20" as="geometry"/>
        </mxCell>
        <mxCell id="KA4Vn77G2BXHQ5LwoBZZ-36" value="TM-PAS" style="rounded=0;whiteSpace=wrap;html=1;" parent="1" vertex="1">
          <mxGeometry x="74" y="640" width="120" height="60" as="geometry"/>
        </mxCell>
        <mxCell id="KA4Vn77G2BXHQ5LwoBZZ-37" value="Attitudes toward Smoking" style="rounded=0;whiteSpace=wrap;html=1;" parent="1" vertex="1">
          <mxGeometry x="280" y="524" width="120" height="60" as="geometry"/>
        </mxCell>
        <mxCell id="KA4Vn77G2BXHQ5LwoBZZ-39" value="Future Smoking Intentions" style="rounded=0;whiteSpace=wrap;html=1;" parent="1" vertex="1">
          <mxGeometry x="490" y="640" width="120" height="60" as="geometry"/>
        </mxCell>
        <mxCell id="KA4Vn77G2BXHQ5LwoBZZ-41" value="" style="endArrow=classic;html=1;" parent="1" edge="1">
          <mxGeometry width="50" height="50" relative="1" as="geometry">
            <mxPoint x="195" y="670" as="sourcePoint"/>
            <mxPoint x="490" y="671" as="targetPoint"/>
          </mxGeometry>
        </mxCell>
        <mxCell id="KA4Vn77G2BXHQ5LwoBZZ-44" value="" style="endArrow=classic;html=1;entryX=0.042;entryY=1;entryDx=0;entryDy=0;entryPerimeter=0;" parent="1" target="KA4Vn77G2BXHQ5LwoBZZ-37" edge="1">
          <mxGeometry width="50" height="50" relative="1" as="geometry">
            <mxPoint x="195" y="644" as="sourcePoint"/>
            <mxPoint x="335" y="614" as="targetPoint"/>
          </mxGeometry>
        </mxCell>
        <mxCell id="KA4Vn77G2BXHQ5LwoBZZ-55" value="" style="endArrow=classic;html=1;entryX=0;entryY=0.027;entryDx=0;entryDy=0;entryPerimeter=0;" parent="1" target="KA4Vn77G2BXHQ5LwoBZZ-39" edge="1">
          <mxGeometry width="50" height="50" relative="1" as="geometry">
            <mxPoint x="400" y="584" as="sourcePoint"/>
            <mxPoint x="600" y="594" as="targetPoint"/>
          </mxGeometry>
        </mxCell>
        <mxCell id="KA4Vn77G2BXHQ5LwoBZZ-58" value="a = .46*" style="text;html=1;resizable=0;points=[];autosize=1;align=left;verticalAlign=top;spacingTop=-4;" parent="1" vertex="1">
          <mxGeometry x="165" y="600" width="60" height="20" as="geometry"/>
        </mxCell>
        <mxCell id="KA4Vn77G2BXHQ5LwoBZZ-59" value="b = .59***" style="text;html=1;resizable=0;points=[];autosize=1;align=left;verticalAlign=top;spacingTop=-4;" parent="1" vertex="1">
          <mxGeometry x="475" y="600" width="70" height="20" as="geometry"/>
        </mxCell>
        <mxCell id="KA4Vn77G2BXHQ5LwoBZZ-60" value="c&#39; = -.86***" style="text;html=1;resizable=0;points=[];autosize=1;align=left;verticalAlign=top;spacingTop=-4;" parent="1" vertex="1">
          <mxGeometry x="324" y="682" width="70" height="20" as="geometry"/>
        </mxCell>
        <mxCell id="KA4Vn77G2BXHQ5LwoBZZ-61" value="Indirect effect (TM-PAS -&amp;gt; Attitudes -&amp;gt; Intentions) = .27 $" style="text;html=1;resizable=0;points=[];autosize=1;align=left;verticalAlign=top;spacingTop=-4;" parent="1" vertex="1">
          <mxGeometry x="195" y="490" width="320" height="20" as="geometry"/>
        </mxCell>
        <mxCell id="MeNQMWQtIjlh-BUCq2rx-1" value="Perceived Benefits" style="rounded=0;whiteSpace=wrap;html=1;" parent="1" vertex="1">
          <mxGeometry x="190" y="750" width="120" height="60" as="geometry"/>
        </mxCell>
        <mxCell id="MeNQMWQtIjlh-BUCq2rx-2" value="a&lt;sub&gt;3&lt;/sub&gt; = 0.59***" style="text;html=1;resizable=0;points=[];autosize=1;align=left;verticalAlign=top;spacingTop=-4;" parent="1" vertex="1">
          <mxGeometry x="314" y="760" width="80" height="20" as="geometry"/>
        </mxCell>
        <mxCell id="MeNQMWQtIjlh-BUCq2rx-3" value="Attitudes toward Smoking" style="rounded=0;whiteSpace=wrap;html=1;" parent="1" vertex="1">
          <mxGeometry x="390" y="750" width="120" height="60" as="geometry"/>
        </mxCell>
        <mxCell id="MeNQMWQtIjlh-BUCq2rx-4" value="RTM-PAS&lt;br&gt;vs. OM" style="rounded=0;whiteSpace=wrap;html=1;" parent="1" vertex="1">
          <mxGeometry x="30" y="870" width="120" height="60" as="geometry"/>
        </mxCell>
        <mxCell id="MeNQMWQtIjlh-BUCq2rx-5" value="Future Smoking Intentions" style="rounded=0;whiteSpace=wrap;html=1;" parent="1" vertex="1">
          <mxGeometry x="580" y="870" width="120" height="60" as="geometry"/>
        </mxCell>
        <mxCell id="MeNQMWQtIjlh-BUCq2rx-6" value="" style="endArrow=classic;html=1;" parent="1" edge="1">
          <mxGeometry width="50" height="50" relative="1" as="geometry">
            <mxPoint x="150" y="900" as="sourcePoint"/>
            <mxPoint x="580" y="900.5" as="targetPoint"/>
          </mxGeometry>
        </mxCell>
        <mxCell id="MeNQMWQtIjlh-BUCq2rx-7" value="" style="endArrow=classic;html=1;entryX=0.02;entryY=-0.037;entryDx=0;entryDy=0;entryPerimeter=0;exitX=1;exitY=0.996;exitDx=0;exitDy=0;exitPerimeter=0;" parent="1" source="MeNQMWQtIjlh-BUCq2rx-3" edge="1">
          <mxGeometry width="50" height="50" relative="1" as="geometry">
            <mxPoint x="514.8" y="809.76" as="sourcePoint"/>
            <mxPoint x="585.4000000000001" y="869.28" as="targetPoint"/>
          </mxGeometry>
        </mxCell>
        <mxCell id="MeNQMWQtIjlh-BUCq2rx-8" value="" style="endArrow=classic;html=1;" parent="1" edge="1">
          <mxGeometry width="50" height="50" relative="1" as="geometry">
            <mxPoint x="310" y="810" as="sourcePoint"/>
            <mxPoint x="580" y="899" as="targetPoint"/>
          </mxGeometry>
        </mxCell>
        <mxCell id="MeNQMWQtIjlh-BUCq2rx-9" value="a&lt;sub&gt;1&lt;/sub&gt; = 0.11" style="text;html=1;resizable=0;points=[];autosize=1;align=left;verticalAlign=top;spacingTop=-4;" parent="1" vertex="1">
          <mxGeometry x="100" y="820" width="60" height="20" as="geometry"/>
        </mxCell>
        <mxCell id="MeNQMWQtIjlh-BUCq2rx-12" value="c&#39; = -.079**" style="text;html=1;resizable=0;points=[];autosize=1;align=left;verticalAlign=top;spacingTop=-4;" parent="1" vertex="1">
          <mxGeometry x="320" y="880" width="70" height="20" as="geometry"/>
        </mxCell>
        <mxCell id="MeNQMWQtIjlh-BUCq2rx-13" value="b&lt;sub&gt;2&lt;/sub&gt; = 0.34*" style="text;html=1;resizable=0;points=[];autosize=1;align=left;verticalAlign=top;spacingTop=-4;" parent="1" vertex="1">
          <mxGeometry x="560" y="820" width="70" height="20" as="geometry"/>
        </mxCell>
        <mxCell id="MeNQMWQtIjlh-BUCq2rx-14" value="b&lt;sub&gt;1&lt;/sub&gt; = 0.33**" style="text;html=1;resizable=0;points=[];autosize=1;align=left;verticalAlign=top;spacingTop=-4;" parent="1" vertex="1">
          <mxGeometry x="450" y="830" width="70" height="20" as="geometry"/>
        </mxCell>
        <mxCell id="MeNQMWQtIjlh-BUCq2rx-16" value="" style="endArrow=classic;html=1;exitX=1;exitY=0.5;exitDx=0;exitDy=0;" parent="1" source="MeNQMWQtIjlh-BUCq2rx-1" edge="1">
          <mxGeometry width="50" height="50" relative="1" as="geometry">
            <mxPoint x="314" y="780" as="sourcePoint"/>
            <mxPoint x="390" y="780" as="targetPoint"/>
          </mxGeometry>
        </mxCell>
        <mxCell id="MeNQMWQtIjlh-BUCq2rx-17" value="" style="endArrow=classic;html=1;entryX=0.011;entryY=0.998;entryDx=0;entryDy=0;entryPerimeter=0;" parent="1" target="MeNQMWQtIjlh-BUCq2rx-3" edge="1">
          <mxGeometry width="50" height="50" relative="1" as="geometry">
            <mxPoint x="150" y="900" as="sourcePoint"/>
            <mxPoint x="200" y="850" as="targetPoint"/>
          </mxGeometry>
        </mxCell>
        <mxCell id="MeNQMWQtIjlh-BUCq2rx-18" value="" style="endArrow=classic;dashed=1;html=1;entryX=-0.007;entryY=0.987;entryDx=0;entryDy=0;entryPerimeter=0;endFill=1;" parent="1" target="MeNQMWQtIjlh-BUCq2rx-1" edge="1">
          <mxGeometry width="50" height="50" relative="1" as="geometry">
            <mxPoint x="150" y="870" as="sourcePoint"/>
            <mxPoint x="200" y="820" as="targetPoint"/>
          </mxGeometry>
        </mxCell>
        <mxCell id="MeNQMWQtIjlh-BUCq2rx-19" value="&lt;span style=&quot;font-family: &amp;#34;helvetica&amp;#34; , &amp;#34;arial&amp;#34; , sans-serif ; font-size: 0px&quot;&gt;%3CmxGraphModel%3E%3Croot%3E%3CmxCell%20id%3D%220%22%2F%3E%3CmxCell%20id%3D%221%22%20parent%3D%220%22%2F%3E%3CmxCell%20id%3D%222%22%20value%3D%22a%26lt%3Bsub%26gt%3B2%26lt%3B%2Fsub%26gt%3B%20%3D%20.40*%22%20style%3D%22text%3Bhtml%3D1%3Bresizable%3D0%3Bpoints%3D%5B%5D%3Bautosize%3D1%3Balign%3Dleft%3BverticalAlign%3Dtop%3BspacingTop%3D-4%3B%22%20vertex%3D%221%22%20parent%3D%221%22%3E%3CmxGeometry%20x%3D%22210%22%20y%3D%22830%22%20width%3D%2260%22%20height%3D%2220%22%20as%3D%22geometry%22%2F%3E%3C%2FmxCell%3E%3C%2Froot%3E%3C%2FmxGraphModel%3E&lt;/span&gt;" style="text;html=1;resizable=0;points=[];autosize=1;align=left;verticalAlign=top;spacingTop=-4;" parent="1" vertex="1">
          <mxGeometry x="233" y="283" width="20" height="20" as="geometry"/>
        </mxCell>
        <mxCell id="MeNQMWQtIjlh-BUCq2rx-20" value="a&lt;sub&gt;2&lt;/sub&gt; = 0.12" style="text;html=1;resizable=0;points=[];autosize=1;align=left;verticalAlign=top;spacingTop=-4;" parent="1" vertex="1">
          <mxGeometry x="200" y="281.5" width="60" height="20" as="geometry"/>
        </mxCell>
        <mxCell id="MeNQMWQtIjlh-BUCq2rx-21" value="Indirect effect (RTM-PAS -&amp;gt; Attitudes -&amp;gt; Intentions) = 0.14 $" style="text;html=1;resizable=0;points=[];autosize=1;align=left;verticalAlign=top;spacingTop=-4;" parent="1" vertex="1">
          <mxGeometry x="199" y="716" width="330" height="20" as="geometry"/>
        </mxCell>
        <mxCell id="IZNauL8GEJkRG5HfgAbW-2" value="" style="endArrow=classic;html=1;" parent="1" edge="1">
          <mxGeometry width="50" height="50" relative="1" as="geometry">
            <mxPoint x="150" y="339.5" as="sourcePoint"/>
            <mxPoint x="580" y="340" as="targetPoint"/>
          </mxGeometry>
        </mxCell>
      </root>
    </mxGraphModel>
  </diagram>
</mxfile>
